<svg width="19" height="20" viewBox="0 0 19 20" fill="none" xmlns="http://www.w3.org/2000/svg">
<path d="M5.25 3H4.40021C3.2101 3 2.6146 3 2.16004 3.21799C1.76019 3.40973 1.43534 3.71547 1.23161 4.0918C1 4.51962 1 5.08009 1 6.2002V7M5.25 3H13.75M5.25 3V1M1 7V15.8002C1 16.9203 1 17.4801 1.23161 17.9079C1.43534 18.2842 1.76019 18.5905 2.16004 18.7822C2.61415 19 3.20893 19 4.39672 19H14.6033C15.7911 19 16.385 19 16.8391 18.7822C17.2389 18.5905 17.5649 18.2842 17.7686 17.9079C18 17.4805 18 16.9215 18 15.8036V7M1 7H18M13.75 3H14.6002C15.7903 3 16.3846 3 16.8391 3.21799C17.2389 3.40973 17.5649 3.71547 17.7686 4.0918C18 4.5192 18 5.07899 18 6.19691V7M13.75 3V1M13.75 15H13.7521V15.002H13.75V15ZM9.5 15H9.50213V15.002H9.5V15ZM5.25 15H5.25212L5.25207 15.002H5.25V15ZM13.7521 11V11.002H13.75V11H13.7521ZM9.5 11H9.50213V11.002H9.5V11ZM5.25 11H5.25212L5.25207 11.002H5.25V11Z" stroke="black" stroke-width="2" stroke-linecap="round" stroke-linejoin="round"/>
</svg>
