<svg width="20" height="20" viewBox="0 0 20 20" fill="none" xmlns="http://www.w3.org/2000/svg">
<path fill-rule="evenodd" clip-rule="evenodd" d="M5.01111 19.893L10 17.5682L14.9889 19.893C15.8061 20.2737 16.711 19.5865 16.6169 18.6566L16.0432 12.9789L19.7003 8.73803C20.2992 8.04342 19.9537 6.93151 19.0785 6.73755L13.7349 5.55338L11.0062 0.607561C10.5593 -0.20252 9.44072 -0.20252 8.99379 0.607561L6.26507 5.55338L0.92158 6.73755C0.0463617 6.93151 -0.299288 8.04342 0.299705 8.73803L3.95675 12.9789L3.38302 18.6566C3.28904 19.5865 4.19397 20.2737 5.01111 19.893ZM9.52702 15.13L5.90481 16.818L6.32136 12.6957C6.35598 12.353 6.24971 12.0112 6.02904 11.7552L3.37383 8.6762L7.2535 7.81642C7.57593 7.74496 7.85414 7.53369 8.01879 7.23527L10 3.64432L11.9812 7.23527C12.1458 7.53369 12.424 7.74496 12.7465 7.81642L16.6262 8.6762L13.9709 11.7552C13.7503 12.0112 13.644 12.353 13.6786 12.6957L14.0952 16.818L10.473 15.13C10.1719 14.9897 9.82806 14.9897 9.52702 15.13Z" fill="black"/>
</svg>
