<svg width="20" height="20" viewBox="0 0 20 20" fill="none" xmlns="http://www.w3.org/2000/svg">
<path d="M15.6658 15.6314C18.7955 12.5017 18.7955 7.43492 15.6658 4.3132" stroke="black" stroke-width="2.2" stroke-linecap="round" stroke-linejoin="round"/>
<path d="M4.34729 4.3132C1.21757 7.44293 1.21757 12.5097 4.34729 15.6314" stroke="black" stroke-width="2.2" stroke-linecap="round" stroke-linejoin="round"/>
<path d="M7.36475 17.5044C8.22122 17.8006 9.10967 17.9448 10.0062 17.9448C10.9027 17.9368 11.7911 17.8006 12.6476 17.5044" stroke="black" stroke-width="2.2" stroke-linecap="round" stroke-linejoin="round"/>
<path d="M7.36475 2.44028C8.22122 2.14412 9.10967 2 10.0062 2C10.9027 2 11.7911 2.14412 12.6476 2.44028" stroke="black" stroke-width="2.2" stroke-linecap="round" stroke-linejoin="round"/>
<path d="M7.39673 9.97244V8.63579C7.39673 6.97084 8.57339 6.29044 10.0142 7.1229L11.1748 7.7953L12.3355 8.46761C13.7763 9.30007 13.7763 10.6609 12.3355 11.4934L11.1748 12.1657L10.0142 12.8381C8.57339 13.6706 7.39673 12.9901 7.39673 11.3252V9.97244Z" stroke="black" stroke-width="2.2" stroke-miterlimit="10" stroke-linecap="round" stroke-linejoin="round"/>
</svg>
