<svg width="20" height="20" viewBox="0 0 20 20" fill="none" xmlns="http://www.w3.org/2000/svg">
<g clip-path="url(#clip0_2_17)">
<path d="M19.9921 4.08333C20.0026 4.00785 20.0026 3.93132 19.9921 3.85583C19.9825 3.79223 19.9638 3.73025 19.9366 3.67167C19.9072 3.61872 19.8738 3.56802 19.8366 3.52C19.7944 3.45148 19.742 3.38942 19.6812 3.33583L19.5479 3.26C19.4838 3.21337 19.4126 3.17682 19.3369 3.15167H19.1148C19.0471 3.08774 18.9681 3.03635 18.8816 3H13.3287C13.0342 3 12.7517 3.11414 12.5434 3.3173C12.3352 3.52047 12.2182 3.79602 12.2182 4.08333C12.2182 4.37065 12.3352 4.6462 12.5434 4.84937C12.7517 5.05253 13.0342 5.16667 13.3287 5.16667H16.4716L12.0294 10.2692L7.23173 7.485C7.00449 7.35316 6.73648 7.30473 6.47591 7.34841C6.21533 7.3921 5.97928 7.52504 5.81021 7.72333L0.257385 14.2233C0.163873 14.3328 0.0934188 14.4592 0.0500574 14.5953C0.00669601 14.7313 -0.00872061 14.8744 0.00469042 15.0163C0.0181015 15.1582 0.0600767 15.2961 0.128212 15.4222C0.196347 15.5482 0.289304 15.6599 0.401758 15.7508C0.601562 15.9123 0.853034 16.0005 1.11252 16C1.27567 16.0003 1.43688 15.9654 1.58468 15.898C1.73248 15.8306 1.86324 15.7323 1.96765 15.61L6.90967 9.825L11.6518 12.5983C11.8767 12.7285 12.1415 12.777 12.3995 12.7354C12.6575 12.6938 12.8922 12.5647 13.0622 12.3708L17.771 7.00833V9.5C17.771 9.78732 17.888 10.0629 18.0963 10.266C18.3045 10.4692 18.587 10.5833 18.8816 10.5833C19.1761 10.5833 19.4586 10.4692 19.6668 10.266C19.8751 10.0629 19.9921 9.78732 19.9921 9.5V4.08333Z" fill="black"/>
</g>
<defs>
<clipPath id="clip0_2_17">
<rect width="20" height="20" fill="white"/>
</clipPath>
</defs>
</svg>
